<svg width="141" height="116" viewBox="0 0 141 116" fill="none" xmlns="http://www.w3.org/2000/svg">
<path d="M118.671 68.4653V69.6089L51.8547 108.653V107.509L118.671 68.4653Z" fill="#C1C4D3"/>
<path d="M51.8547 107.509V108.653L1.04833 79.2474V77.9404L51.8547 107.509Z" fill="#D6D8E5"/>
<path d="M118.671 68.4655L51.8547 107.51L1.04826 77.9406L67.8644 38.8965L118.671 68.4655Z" fill="#E9EAF2"/>
<path d="M118.671 65.1982V66.5051L51.6913 105.549L51.8547 104.242L118.671 65.1982Z" fill="#C1C4D3"/>
<path d="M51.8547 104.242L51.6914 105.549L1.04833 75.98V74.8364L51.8547 104.242Z" fill="#D6D8E5"/>
<path d="M118.671 65.1981L51.8547 104.242L1.04826 74.8366L67.8644 35.7925L118.671 65.1981Z" fill="#E9EAF2"/>
<path d="M118.671 62.0942V63.2378L51.8547 102.282V101.138L118.671 62.0942Z" fill="#C1C4D3"/>
<path d="M51.8547 101.138V102.282L1.04833 72.876V71.7324L51.8547 101.138Z" fill="#D6D8E5"/>
<path d="M118.671 62.0941L51.8547 101.138L1.04826 71.7326L67.8644 32.6885L118.671 62.0941Z" fill="#E9EAF2"/>
<path d="M118.671 58.8271V60.134L51.6913 99.1782L51.8547 97.8713L118.671 58.8271Z" fill="#C1C4D3"/>
<path d="M51.8547 97.871L51.6914 99.1779L1.04833 69.7722V68.4653L51.8547 97.871Z" fill="#D6D8E5"/>
<path d="M118.671 58.827L51.8547 97.8711L1.04826 68.4655L67.8644 29.4214L118.671 58.827Z" fill="#E9EAF2"/>
<path d="M118.671 56.2134V57.357L51.8547 96.4011V95.2575L118.671 56.2134Z" fill="#C1C4D3"/>
<path d="M51.8547 95.2572V96.4008L1.04833 66.9951V65.8516L51.8547 95.2572Z" fill="#D6D8E5"/>
<path d="M118.671 56.2132L51.8547 95.2574L1.04826 65.8517L67.8644 26.8076L118.671 56.2132Z" fill="#E9EAF2"/>
<path d="M118.671 52.9458V54.2527L51.6913 93.2969L51.8547 91.9899L118.671 52.9458Z" fill="#C1C4D3"/>
<path d="M51.8547 91.9896L51.6914 93.2966L1.04833 63.8909V62.584L51.8547 91.9896Z" fill="#D6D8E5"/>
<path d="M118.671 52.9457L51.8547 91.9898L1.04826 62.5842L67.8644 23.54L118.671 52.9457Z" fill="#E9EAF2"/>
<path d="M118.671 49.8418V50.9853L51.8547 90.0295V88.8859L118.671 49.8418Z" fill="#C1C4D3"/>
<path d="M51.8547 88.8856V90.0292L1.04833 60.6236V59.48L51.8547 88.8856Z" fill="#D6D8E5"/>
<path d="M118.671 49.8417L51.8547 88.8858L1.04826 59.4802L67.8644 20.436L118.671 49.8417Z" fill="#E9EAF2"/>
<path d="M118.671 46.5747V47.8816L51.6913 86.9257L51.8547 85.6188L118.671 46.5747Z" fill="#C1C4D3"/>
<path d="M51.8547 85.6185L51.6914 86.9254L1.04833 57.5198V56.2129L51.8547 85.6185Z" fill="#D6D8E5"/>
<path d="M118.671 46.5746L51.8547 85.6187L1.04826 56.2131L67.8644 17.1689L118.671 46.5746Z" fill="#E9EAF2"/>
<path d="M1.04822 55.4775L1.21157 81.4525L37.1518 102.2L36.9884 76.3882L1.04822 55.4775Z" fill="#345E9E"/>
<path d="M0.932617 55.3959L36.8728 76.3065L103.978 37.2637L68.0379 16.353L0.932617 55.3959Z" fill="#264A82"/>
<path d="M88.6938 115.024L85.9166 113.39L85.2632 30.7275L88.0403 32.3612L88.6938 115.024Z" fill="#C1C4D3"/>
<path d="M88.0403 32.361L85.2631 30.7274L137.05 0.504883L139.827 2.13853L88.0403 32.361Z" fill="#D6D8E5"/>
<path d="M139.827 2.13867L140.317 84.8012L88.6938 115.024L88.0403 32.3612L139.827 2.13867Z" fill="#E9EAF2"/>
</svg>
