<svg width="81" height="152" viewBox="0 0 81 152" fill="none" xmlns="http://www.w3.org/2000/svg">
<path d="M43.12 146.897V150.179L46.2857 151.819V148.538L43.12 146.897Z" fill="#264A82"/>
<path d="M43.1196 146.896L46.2854 145.352L49.4511 146.896L46.2854 148.537L43.1196 146.896Z" fill="#231F20"/>
<path d="M46.2864 148.538V151.819L49.4521 150.179V146.897L46.2864 148.538Z" fill="#2B2A30"/>
<path d="M74.6681 130.875V134.06L77.8338 135.701V132.516L74.6681 130.875Z" fill="#264A82"/>
<path d="M74.6691 130.875L77.8348 129.234L81.0005 130.875L77.8348 132.516L74.6691 130.875Z" fill="#231F20"/>
<path d="M77.8346 132.516V135.701L81.0004 134.06V130.875L77.8346 132.516Z" fill="#2B2A30"/>
<path d="M46.2861 39.8608V149.985L81.0002 132.323V22.1985L46.2861 39.8608Z" fill="#19345D"/>
<path d="M46.2854 39.8608L2.94739 17.7588V127.883L46.2854 149.985V39.8608Z" fill="url(#paint0_linear)"/>
<path d="M2.94739 17.7588L37.6615 0L80.9995 22.1985L46.2854 39.8608L2.94739 17.7588Z" fill="#264A82"/>
<path d="M43.4471 41.3086V151.433L46.2854 149.985V39.8608L43.4471 41.3086Z" fill="#19345D"/>
<path d="M43.4472 41.3093L0 19.2073V129.331L43.4472 151.433V41.3093Z" fill="#264A82"/>
<path d="M28.054 80.3975L12.5527 72.4832V50.7671L28.054 58.6814V80.3975ZM12.9894 72.2901L27.6174 79.7219V58.8744L12.9894 51.4427V72.2901Z" fill="#D6D8E5"/>
<path d="M0 19.2065L2.94742 17.7588L46.2855 39.8606L43.4472 41.3083L0 19.2065Z" fill="#345E9E"/>
<path d="M46.722 149.792L46.2854 149.985V39.8608L2.94739 17.7588L3.38404 17.4692L46.722 39.6678V149.792Z" fill="#2B2A30"/>
<path d="M6.8772 87.1533V83.6787L34.714 97.963V101.438L6.8772 87.1533Z" fill="#19345D"/>
<path d="M6.8772 84.3542V82.7134L34.714 96.998V98.5422L6.8772 84.3542Z" fill="#D6D8E5"/>
<path d="M43.4472 105.202L35.2599 101.052V96.7084L6.3315 81.9414V86.2846L0 83.0996V83.7752L6.3315 86.9602L6.87732 87.2498V86.5742V82.7135L34.7141 96.9979V100.859V101.438L35.2599 101.727L43.4472 105.877V105.202Z" fill="#2B2A30"/>
<path d="M26.7441 59.357L13.8628 52.7939V61.0942L26.7441 67.6572V59.357Z" fill="#19345D"/>
<path d="M15.6108 59.6464V55.5928L24.999 60.3221V64.3757L15.6108 59.6464Z" fill="#DB2B21"/>
<path d="M26.7441 66.9817L13.8628 60.4187V71.8074L26.7441 78.3704V66.9817Z" fill="#A1A5B5"/>
<path d="M13.8628 71.8074L18.5568 69.3945L26.7441 73.2551V78.3704L13.8628 71.8074Z" fill="#E9EAF2"/>
<path d="M18.5568 69.3945V62.8316L13.8628 60.4187V71.8074L18.5568 69.3945Z" fill="#D6D8E5"/>
<path d="M26.7441 66.9816L13.8628 60.4187V61.0943L26.7441 67.6572V66.9816Z" fill="#E9EAF2"/>
<path d="M43.4471 105.202L46.2854 103.754V104.43L43.4471 105.878V105.202Z" fill="#2B2A30"/>
<defs>
<linearGradient id="paint0_linear" x1="24.6332" y1="17.7295" x2="24.6332" y2="150.018" gradientUnits="userSpaceOnUse">
<stop stop-color="#D1D3D4"/>
<stop offset="1" stop-color="#A7A9AC"/>
</linearGradient>
</defs>
</svg>
