<svg width="101" height="106" viewBox="0 0 101 106" fill="none" xmlns="http://www.w3.org/2000/svg">
<path d="M52.5583 9.27539V81.7754L11.6583 105.375V32.8754L52.5583 9.27539Z" fill="#264A82"/>
<path d="M52.5583 49.2754V81.7754L48.2583 84.2754L47.6583 84.5754L43.0583 87.1754L42.6583 87.4754L37.5583 90.4754L37.1583 90.6754L32.0583 93.6754L26.4583 96.8754L11.6583 105.475V89.2754C14.2583 89.1754 16.9583 88.7754 18.7583 86.8754C20.0583 85.4754 20.2583 83.6754 21.3583 82.1754C22.9583 79.9754 24.9583 80.9754 26.7583 79.3754C28.3583 78.0754 29.2583 75.3754 29.7583 73.0754C29.9583 72.3754 30.1583 71.5754 30.3583 70.8754C30.6583 69.8754 30.9583 68.8754 31.4583 67.8754C31.5583 67.6754 31.6583 67.3754 31.8583 67.1754C32.0583 66.8754 32.2583 66.5754 32.4583 66.2754C33.5583 64.8754 34.7583 64.3754 35.9583 63.9754C36.7583 63.6754 37.4583 63.4754 38.2583 63.0754C38.5583 62.8754 38.8583 62.6754 39.2583 62.4754C39.6583 62.1754 40.1583 61.7754 40.5583 61.2754C40.6583 61.1754 40.8583 60.9754 40.9583 60.7754C41.8583 59.7754 42.7583 58.6754 43.6583 57.7754C43.7583 57.6754 43.7583 57.6754 43.8583 57.5754C44.2583 57.1754 44.6583 56.8754 45.0583 56.6754C45.0583 56.6754 45.0583 56.6754 45.1583 56.6754C45.6583 56.3754 46.0583 56.2754 46.5583 56.0754C46.6583 55.9754 46.8583 55.9754 46.9583 55.9754C47.6583 55.7754 48.3583 55.4754 49.0583 54.7754C50.2583 53.2754 51.2583 50.4754 52.5583 49.2754Z" fill="#D6D8E5"/>
<path d="M7.55832 90.9754C7.15832 91.4754 6.75832 91.9754 6.35832 92.4754C5.35832 93.5754 4.05832 94.1754 2.55832 94.2754C1.85832 94.2754 1.25833 94.3754 0.658325 94.4754V98.9754L11.6583 105.375V89.2754C10.0583 89.2754 8.55832 89.8754 7.55832 90.9754Z" fill="#C1C4D3"/>
<path d="M0.658325 26.4756V94.4756C1.25833 94.3756 1.95832 94.2756 2.55832 94.2756C3.95832 94.1756 5.35832 93.5756 6.35832 92.4756C6.75832 91.9756 7.15832 91.4756 7.55832 90.9756C8.55832 89.8756 10.0583 89.2756 11.6583 89.2756V32.8756L0.658325 26.4756Z" fill="#19345D"/>
<path d="M0.658325 26.4755L11.6583 32.8755L52.5583 9.27548L41.4583 2.87549L0.658325 26.4755Z" fill="#345E9E"/>
<path d="M9.95834 33.2755V38.3755C9.95834 39.0755 9.85834 39.6755 9.65834 40.1755C9.05834 41.6755 7.75834 42.1755 6.15834 41.2755C4.05834 40.0755 2.35834 36.7755 2.35834 33.9755V28.8755L5.35834 30.6755L9.95834 33.2755Z" fill="#C1C4D3"/>
<path d="M6.85834 40.7755C4.75834 39.5755 3.05833 36.2755 3.05833 33.4755V29.2755L2.35834 28.8755V33.9755C2.35834 36.7755 4.05834 39.9755 6.15834 41.2755C7.25834 41.9755 8.35833 41.8755 9.05833 41.1755C8.35833 41.2755 7.65834 41.1755 6.85834 40.7755Z" fill="#345E9E"/>
<path d="M14.9583 100.275C14.8583 100.275 14.7583 100.275 14.6583 100.175C14.4583 100.075 14.3583 99.8754 14.3583 99.6754V94.0754C14.3583 93.7754 14.5583 93.4754 14.7583 93.3754L18.0583 91.4754C18.2583 91.3754 18.4583 91.3754 18.5583 91.4754C18.7583 91.5754 18.8583 91.7754 18.8583 91.9754V97.5754C18.8583 97.8754 18.6583 98.1754 18.4583 98.2754L15.1583 100.175C15.1583 100.175 15.0583 100.275 14.9583 100.275ZM18.3583 91.8754L15.0583 93.7754C14.9583 93.8754 14.8583 93.9754 14.8583 94.1754V99.7754C14.8583 99.8754 14.8583 99.8754 14.9583 99.8754H15.0583L18.3583 97.9754C18.4583 97.8754 18.5583 97.7754 18.5583 97.5754V91.9754C18.4583 91.9754 18.4583 91.8754 18.3583 91.8754C18.4583 91.8754 18.3583 91.8754 18.3583 91.8754Z" fill="#19345D"/>
<path d="M20.0584 97.2754C19.9584 97.2754 19.8584 97.2754 19.7584 97.1754C19.5584 97.0754 19.4584 96.8754 19.4584 96.6754V91.0754C19.4584 90.7754 19.6584 90.4754 19.8584 90.3754L23.1584 88.4754C23.3584 88.3754 23.5584 88.3754 23.6584 88.4754C23.8584 88.5754 23.9584 88.7754 23.9584 88.9754V94.5754C23.9584 94.8754 23.7584 95.1754 23.5584 95.2754L20.2584 97.1754C20.2584 97.2754 20.1584 97.2754 20.0584 97.2754ZM23.4584 88.8754L20.1584 90.7754C20.0584 90.8754 19.9584 90.9754 19.9584 91.1754V96.7754C19.9584 96.8754 19.9584 96.8754 20.0584 96.8754H20.1584L23.4584 94.9754C23.5584 94.8754 23.6584 94.7754 23.6584 94.5754V88.9754C23.6584 88.9754 23.5584 88.8754 23.4584 88.8754C23.5584 88.8754 23.5584 88.8754 23.4584 88.8754Z" fill="#19345D"/>
<path d="M18.0583 97.6758L15.2584 99.2758V94.7758L18.0583 93.1758V97.6758Z" fill="#19345D"/>
<path d="M17.1583 94.7754L15.7583 97.0754L15.6583 96.8754L16.9583 94.7754C17.0583 94.7754 17.0583 94.7754 17.1583 94.7754Z" fill="#19345D"/>
<path d="M17.4583 95.0755L15.9583 97.4755L15.8583 97.2755L17.3583 94.8755L17.4583 95.0755Z" fill="#19345D"/>
<path d="M17.6583 95.6756L16.3583 97.7756C16.2583 97.7756 16.2583 97.7756 16.1583 97.7756L17.6583 95.4756C17.6583 95.4756 17.6583 95.5756 17.6583 95.6756Z" fill="#19345D"/>
<path d="M17.6583 95.3758C17.5583 94.9758 17.4583 94.7758 17.1583 94.6758C17.0583 94.6758 17.0583 94.6758 16.9583 94.6758C16.8583 94.6758 16.7583 94.7758 16.6583 94.7758C16.0583 95.0758 15.6583 95.9758 15.6583 96.7758C15.6583 97.2758 15.8583 97.6758 16.2583 97.6758C16.3583 97.6758 16.3583 97.6758 16.4583 97.6758C16.5583 97.6758 16.6583 97.5758 16.7583 97.5758C17.3583 97.2758 17.7583 96.3758 17.7583 95.6758V95.5758C17.6583 95.5758 17.6583 95.4758 17.6583 95.3758ZM16.5583 97.3758C16.4583 97.4758 16.3583 97.4758 16.2583 97.4758C15.9583 97.4758 15.9583 97.1758 15.9583 96.8758C15.9583 96.1758 16.3583 95.3758 16.8583 95.1758C16.9583 95.0758 17.0583 95.0758 17.1583 95.0758C17.4583 95.0758 17.4583 95.3758 17.4583 95.6758C17.4583 96.2758 17.0583 97.0758 16.5583 97.3758Z" fill="#19345D"/>
<path d="M18.0583 93.0754L15.2584 94.6754V93.9754L18.0583 92.2754V93.0754Z" fill="#19345D"/>
<path d="M15.7583 93.7754V94.2754L15.3583 94.4754V93.9754L15.7583 93.7754Z" fill="#19345D"/>
<path d="M16.2584 93.7753C16.2584 93.6753 16.1584 93.6753 16.2584 93.7753C16.1584 93.6753 16.1584 93.6753 16.2584 93.7753C16.1584 93.6753 16.1584 93.6753 16.1584 93.6753C16.0584 93.6753 16.0583 93.7753 16.0583 93.8753C16.0583 93.9753 16.0584 93.9753 16.1584 93.9753C16.1584 93.8753 16.2584 93.8753 16.2584 93.7753Z" fill="#19345D"/>
<path d="M16.6584 93.4755C16.5584 93.4755 16.5584 93.4755 16.6584 93.4755C16.5584 93.3755 16.5584 93.3755 16.5584 93.3755C16.4584 93.3755 16.4584 93.4755 16.4584 93.5755C16.4584 93.6755 16.4584 93.6755 16.5584 93.6755C16.5584 93.6755 16.6584 93.5755 16.6584 93.4755Z" fill="#19345D"/>
<path d="M17.0583 93.2753C17.0583 93.1753 17.0583 93.1753 17.0583 93.2753C16.9583 93.1753 16.9583 93.1753 17.0583 93.2753C16.9583 93.1753 16.9583 93.1753 16.9583 93.1753C16.8583 93.1753 16.8583 93.2753 16.8583 93.3753C16.8583 93.4753 16.8583 93.4753 16.9583 93.4753C16.9583 93.4753 17.0583 93.3753 17.0583 93.2753Z" fill="#19345D"/>
<path d="M17.4584 92.9755C17.3584 92.9755 17.3584 92.9755 17.4584 92.9755C17.3584 92.8755 17.3584 92.8755 17.3584 92.8755C17.2584 92.8755 17.2584 92.9755 17.2584 93.0755C17.2584 93.1755 17.2584 93.1755 17.3584 93.1755C17.3584 93.1755 17.4584 93.1755 17.4584 92.9755C17.4584 93.0755 17.4584 93.0755 17.4584 92.9755Z" fill="#19345D"/>
<path d="M17.8583 92.7753C17.7583 92.6753 17.7583 92.6753 17.8583 92.7753C17.7583 92.6753 17.7583 92.6753 17.7583 92.6753C17.6583 92.6753 17.6583 92.7753 17.6583 92.8753C17.6583 92.9753 17.6583 92.9753 17.7583 92.9753C17.7583 92.9753 17.8583 92.8753 17.8583 92.7753Z" fill="#19345D"/>
<path d="M20.2584 94.7757C20.2584 94.6757 20.1584 94.5757 20.1584 94.4757C20.1584 94.3757 20.0583 94.2757 20.0583 94.1757C20.0583 93.9757 20.0583 93.8757 20.0583 93.6757L20.1584 93.7757C20.2584 93.8757 20.3584 93.8757 20.4584 93.9757C20.7584 94.0757 20.8583 93.7757 21.0583 93.5757C21.1583 93.4757 21.2584 93.4757 21.4584 93.4757H21.5583C21.5583 93.4757 21.6584 93.3757 21.7584 93.2757C21.8584 93.1757 21.9583 93.0757 22.0583 92.9757C22.1583 92.8757 22.2584 92.8757 22.3584 92.8757C22.4584 92.8757 22.4583 92.8757 22.5583 92.8757C22.5583 92.8757 22.6584 92.7757 22.7584 92.7757C22.9584 92.5757 23.2584 92.2757 23.3584 92.0757V92.1757C23.3584 92.2757 23.3584 92.2757 23.3584 92.3757C23.3584 92.4757 23.3584 92.5757 23.3584 92.6757C23.3584 92.8757 23.3584 93.0757 23.2584 93.2757C23.1584 93.5757 23.0584 93.8757 22.9584 94.1757C22.9584 94.1757 22.9584 94.4757 22.8584 94.4757L20.6584 95.7757L20.2584 94.7757Z" fill="#19345D"/>
<path d="M22.6584 94.3759L20.8584 95.4759C20.7584 95.2759 20.6584 94.9759 20.5584 94.7759C20.5584 94.6759 20.4584 94.6759 20.4584 94.5759C20.4584 94.4759 20.4584 94.4759 20.4584 94.3759V94.2759L20.7584 94.4759C20.8584 94.4759 20.9584 94.4759 21.0584 94.3759L21.1584 94.2759C21.2584 94.1759 21.2584 94.0759 21.3584 94.0759C21.4584 93.9759 21.5584 93.9759 21.6584 93.9759C21.7584 93.9759 21.7584 93.9759 21.8584 93.9759C21.9584 93.9759 22.0584 93.8759 22.1584 93.7759C22.2584 93.6759 22.3584 93.5759 22.3584 93.4759C22.4584 93.4759 22.4584 93.3759 22.5584 93.3759H22.6584C22.6584 93.3759 22.6584 93.3759 22.7584 93.3759C22.8584 93.3759 22.9584 93.3759 23.0584 93.2759L23.1584 93.1759C23.1584 93.1759 23.3584 92.8759 23.3584 92.7759C23.3584 92.7759 23.3584 92.9759 23.3584 93.0759L22.6584 94.3759Z" fill="#19345D"/>
<path d="M21.1583 93.0754C21.0583 93.0754 20.9583 92.9754 20.9583 92.8754C20.8583 92.7754 20.9583 92.5754 20.9583 92.4754V92.3754C20.9583 92.2754 20.9583 92.1754 21.0583 91.9754C21.1583 91.6754 21.2583 91.4754 21.3583 91.1754L21.4583 91.0754C21.4583 91.0754 21.4583 90.9754 21.5583 90.9754C21.5583 90.9754 21.5583 90.8754 21.6583 90.8754C21.6583 90.7754 21.7583 90.6754 21.8583 90.5754C21.9583 90.4754 22.0583 90.4754 22.0583 90.3754C22.1583 90.3754 22.1583 90.2754 22.2583 90.2754H22.3583C22.5583 90.3754 22.5583 90.6754 22.5583 90.7754C22.5583 90.8754 22.5583 91.1754 22.5583 91.1754C22.5583 91.3754 22.5583 91.5754 22.4583 91.7754C22.4583 91.8754 22.3583 91.9754 22.3583 92.0754C22.2583 92.2754 22.2583 92.4754 22.0583 92.4754H21.9583C21.9583 92.5754 21.9583 92.5754 21.8583 92.6754C21.8583 92.7754 21.7583 92.7754 21.6583 92.7754H21.5583H21.4583L21.1583 93.0754Z" fill="#19345D"/>
<path d="M22.1583 91.2757C22.1583 91.1757 22.1583 90.9757 22.1583 90.8757C22.1583 90.7757 22.1583 90.6757 22.0583 90.5757H21.9583C21.8583 90.5757 21.8583 90.6757 21.8583 90.6757C21.7583 90.7757 21.7583 90.9757 21.6583 91.0757C21.6583 91.1757 21.5583 91.2757 21.4583 91.3757C21.3583 91.5757 21.2583 91.8757 21.2583 92.0757C21.2583 92.1757 21.2583 92.2757 21.1583 92.3757C21.1583 92.4757 21.1583 92.5757 21.1583 92.6757C21.1583 92.6757 21.1583 92.6757 21.2583 92.6757V92.7757C21.2583 92.7757 21.3583 92.7757 21.3583 92.6757C21.3583 92.7757 21.4583 92.6757 21.4583 92.6757C21.4583 92.6757 21.4583 92.6757 21.5583 92.6757C21.5583 92.6757 21.5583 92.5757 21.6583 92.5757C21.7583 92.2757 21.8583 91.9757 21.9583 91.6757V91.7757C21.9583 91.8757 21.9583 92.0757 21.9583 92.1757V92.2757C21.9583 92.3757 22.0583 92.1757 22.0583 92.0757C22.0583 91.9757 22.1583 91.8757 22.1583 91.7757C22.1583 91.6757 22.1583 91.4757 22.1583 91.2757Z" fill="#19345D"/>
<path d="M25.8583 90.9757L25.1583 90.4757L25.9583 88.8757L26.0583 88.7757C26.1583 88.6757 26.1583 88.5757 26.2583 88.5757L26.4583 88.3757L26.6583 88.5757C26.7583 88.4757 26.8583 88.3757 26.8583 88.2757V88.1757V88.0757H26.9583C27.0583 88.0757 27.1583 88.0757 27.1583 88.0757H27.2583L27.4583 88.1757L28.3583 88.8757L27.7583 90.0757V91.5757L25.6583 92.7757V90.9757H25.8583Z" fill="#19345D"/>
<path d="M28.2583 88.8755L27.5583 88.3755H27.4583H27.3583C27.3583 88.3755 27.3583 88.4755 27.2583 88.4755C27.1583 88.6755 27.0583 88.7755 26.8583 88.8755C26.7583 88.9755 26.5583 88.9755 26.4583 88.8755C26.4583 88.8755 26.4583 88.8755 26.3583 88.7755L26.2583 88.8755L26.1583 88.9755C26.1583 88.9755 26.1583 88.9755 26.1583 89.0755L25.4583 90.3755L25.8583 90.6755L26.0583 90.2755V92.1755L27.5583 91.2755V89.3755L27.7583 89.5755L28.2583 88.8755Z" fill="#19345D"/>
<path d="M27.3584 89.3758V89.2758V89.1758H27.2584H27.1584L27.0583 89.2758V89.3758V89.4758V89.5758V89.6758V89.5758L27.1584 89.4758C27.1584 89.4758 27.2584 89.4758 27.2584 89.3758C27.3584 89.4758 27.3584 89.4758 27.3584 89.3758Z" fill="#19345D"/>
<path d="M26.6583 90.7757V90.6757V90.5757H26.5583L26.4583 90.6757C26.4583 90.7757 26.4583 90.7757 26.4583 90.8757V90.9757C26.4583 91.0757 26.4583 91.0757 26.4583 91.0757C26.4583 91.0757 26.4583 91.0757 26.5583 91.0757H26.6583C26.6583 91.0757 26.6583 90.9757 26.7583 90.9757C26.7583 90.9757 26.7583 90.9757 26.7583 90.8757C26.7583 90.8757 26.7583 90.8757 26.6583 90.7757Z" fill="#19345D"/>
<path d="M25.2583 94.4756C25.1583 94.4756 25.0583 94.4756 24.9583 94.3756C24.7583 94.2756 24.6583 94.0756 24.6583 93.8756V88.2756C24.6583 87.9756 24.8583 87.6756 25.0583 87.5756L28.3583 85.6756C28.5583 85.5756 28.7583 85.5756 28.8583 85.6756C29.0583 85.7756 29.1583 85.9756 29.1583 86.1756V91.7756C29.1583 92.0756 28.9583 92.3756 28.7583 92.4756L25.4583 94.3756C25.3583 94.4756 25.3583 94.4756 25.2583 94.4756ZM28.6583 86.0756C28.5583 86.0756 28.5583 86.0756 28.6583 86.0756L25.3583 87.9756C25.2583 88.0756 25.1583 88.1756 25.1583 88.3756V93.9756C25.1583 94.0756 25.1583 94.0756 25.2583 94.0756H25.3583L28.6583 92.1756C28.7583 92.0756 28.8583 91.9756 28.8583 91.7756V86.2756C28.7583 86.1756 28.6583 86.1756 28.6583 86.0756Z" fill="#19345D"/>
<path d="M26.4583 28.1235V35.0235L14.8583 41.7235V34.8235L26.4583 28.1235Z" fill="#EFDA86"/>
<path d="M16.0583 72.4076L47.9584 38.3076V49.7076L16.0583 83.8076V72.4076Z" fill="#E9EAF2"/>
<path d="M19.1583 81.7076L44.8583 54.3076V59.8076L19.1583 87.3076V81.7076Z" fill="#A03535"/>
<path d="M81.8002 12.4755V10.6755C81.8002 10.5755 81.8002 10.4755 81.8002 10.3755C81.7002 9.87553 81.6002 9.47553 81.3002 9.27553L81.1002 9.17553C80.8002 9.07553 80.4002 9.07553 80.0002 9.37553L64.7002 12.1755C63.8002 12.6755 63.0002 13.9755 62.9002 15.2755C62.9002 15.3755 62.9002 15.5755 62.9002 15.6755V17.4755C62.9002 17.4755 50.4002 39.8755 50.6002 60.6755C50.8002 78.2755 53.0002 87.1755 53.6002 89.5755C53.6002 89.6755 53.6002 89.6755 53.7002 89.7755C53.7002 89.7755 56.0002 95.0755 63.9002 95.7755L63.7002 86.7755C65.4002 85.9755 67.2002 85.0755 68.9002 84.0755C74.0002 81.1755 85.6002 79.6755 90.0002 75.4755C90.4002 75.1755 90.6002 74.6755 90.7002 74.0755C91.4002 70.9755 93.5002 59.5755 93.7002 41.6755C94.0002 20.5755 81.8002 12.4755 81.8002 12.4755ZM88.3002 50.1755C87.4002 50.2755 86.8002 49.5755 86.6002 48.5755C86.1002 46.3755 85.1002 42.0755 84.6002 40.8755C83.9002 39.2755 81.9002 34.5755 81.9002 34.5755C81.9002 34.5755 80.1002 30.6755 83.3002 27.6755C84.3002 26.7755 85.4002 26.4755 86.2002 26.9755C87.6002 27.8755 90.0002 29.8755 90.8002 33.6755C91.9002 39.1755 91.5002 45.7755 90.8002 47.4755C90.4002 48.6755 89.6002 50.0755 88.3002 50.1755Z" fill="#A03535"/>
<path d="M64.7002 12.0757L74.5002 17.7757L83.2002 12.6757L73.4002 7.07568L64.7002 12.0757Z" fill="white"/>
<path d="M84.5002 12.6757H83.2001L75.2001 8.07566L73.4001 7.07566C73.8001 6.87566 74.2002 6.77566 74.5002 6.87566L74.7001 6.97565L84.5002 12.6757Z" fill="#E6E6E6"/>
<path d="M74.5002 17.7758L72.7001 20.7758L62.9001 15.2758C63.0001 14.0758 63.8001 12.6758 64.7001 12.1758L74.5002 17.7758Z" fill="#E6E6E6"/>
<path d="M72.7001 20.7759V23.0759L62.9001 17.4759V15.6759C62.9001 15.5759 62.9001 15.3759 62.9001 15.2759L72.7001 20.7759Z" fill="#D6D6D6"/>
<path d="M92.4002 45.4758L92.2002 51.0758L96.8002 51.9758L98.5002 47.9758L99.4002 42.1758L98.2002 33.5758L96.8002 29.0758L93.1002 25.6758H90.5002L93.1002 33.9758L92.4002 45.4758Z" fill="#A03535"/>
<path d="M85.1001 15.8757V14.0757C85.1001 12.7757 84.3001 12.0757 83.3001 12.6757L74.5001 17.7757C73.5001 18.3757 72.7001 19.8757 72.7001 21.2757V23.0757C72.7001 23.0757 60.2001 45.4757 60.4001 66.2757C60.6001 83.8757 62.8001 92.7757 63.4001 95.1757C63.5001 95.5757 63.8001 95.7757 64.1001 95.6757C68.5001 94.6757 73.6001 92.5757 78.7001 89.5757C83.8001 86.6757 92.1001 79.6757 96.6001 75.5757C96.9001 75.2757 97.2002 74.7757 97.3002 74.1757C98.0002 71.0757 100.1 59.6757 100.3 41.7757C100.6 20.7757 85.1001 15.8757 85.1001 15.8757ZM92.8002 27.1757C94.2002 28.0757 96.6001 30.0757 97.4001 33.8757C98.5001 39.3757 98.1001 45.9757 97.4001 47.6757C96.9001 48.8757 96.1002 50.2757 94.8002 50.3757C94.0002 50.4757 93.3001 49.7757 93.1001 48.7757C92.6001 46.5757 91.6001 42.2757 91.1001 41.0757C90.4001 39.4757 88.4001 34.7757 88.4001 34.7757C88.4001 34.7757 86.6001 30.8757 89.8001 27.8757C91.0002 26.9757 92.1002 26.6757 92.8002 27.1757Z" fill="#E84242"/>
<path d="M85.6002 15.5756L85.1002 12.3756H83.5002C83.2002 12.0756 82.8002 11.8756 82.4002 11.6756C77.9002 9.07562 70.6002 9.17562 66.1002 11.7756C65.6002 12.0756 65.2002 12.3756 64.8002 12.6756H63.2002L62.7002 15.8756C62.6002 16.3756 62.6002 16.8756 62.7002 17.3756C63.0002 18.7756 64.1002 20.0756 65.9002 21.1756C70.4002 23.7756 77.7002 23.6756 82.2002 21.0756C84.1002 19.9756 85.2002 18.5756 85.6002 17.0756C85.7002 16.5756 85.7002 16.0756 85.6002 15.5756Z" fill="#D6D8E5"/>
<path d="M85.1002 13.9757C84.8002 15.3757 83.7002 16.6757 81.9002 17.7757C77.6002 20.2757 70.6002 20.2757 66.3002 17.8757C64.5002 16.8757 63.5002 15.5757 63.2002 14.2757C63.1002 13.7757 63.1002 13.1757 63.2002 12.6757C63.4002 11.8757 63.9002 10.9757 64.6002 10.2757C65.1002 9.77568 65.7002 9.37568 66.4002 8.97568C66.5002 8.87568 66.7002 8.87568 66.8002 8.77568C67.1002 8.97568 67.4002 9.17568 67.8002 9.37568C68.4002 9.77568 69.1002 10.0757 69.9002 10.2757C72.6002 11.0757 75.8002 11.0757 78.5002 10.1757C79.2002 9.97568 79.9002 9.67568 80.5002 9.27568C80.9002 9.07568 81.2002 8.77568 81.5002 8.57568C81.7002 8.67568 81.8002 8.77568 82.0002 8.87568C82.7002 9.27568 83.2002 9.67568 83.7002 10.0757L83.9002 10.2757C84.5002 10.9757 84.9002 11.6757 85.1002 12.3757C85.3002 12.8757 85.3002 13.4757 85.1002 13.9757Z" fill="#E9EAF2"/>
<path d="M84.3113 13.276C84.3113 13.576 84.3113 13.776 84.2103 13.976C83.9071 15.176 82.9976 16.476 81.2796 17.376C80.4712 17.776 79.6628 18.176 78.7533 18.376C75.9237 19.276 72.4878 19.276 69.6582 18.476C68.7487 18.176 67.8392 17.876 67.0308 17.376C65.4139 16.476 64.5044 15.276 64.2012 14.076C64.1002 13.776 64.1002 13.576 64.1002 13.276V13.176C64.1002 13.076 64.1002 13.076 64.1002 12.976L64.9086 5.37598C64.9086 5.67598 64.9086 5.97597 65.0097 6.27597C65.2118 7.07597 65.7171 7.87598 66.6266 8.57598C66.9297 8.77598 67.2329 8.97598 67.6371 9.17598C68.2434 9.57598 68.9508 9.87598 69.7593 10.076C72.4878 10.876 75.7216 10.876 78.4501 9.97598C79.1575 9.77598 79.8649 9.47598 80.4712 9.07598C80.8754 8.87598 81.1786 8.57598 81.4818 8.37598C82.3913 7.67598 82.8965 6.87598 83.0987 5.97598C83.0987 5.77598 83.1997 5.57598 83.1997 5.47598C83.4888 7.99352 83.8895 10.4968 84.3113 13.276Z" fill="#D6D8E5"/>
<path d="M91.3001 70.4757C91.2001 71.9757 91.1001 73.3757 90.4001 74.6757C89.3001 76.8757 87.3001 78.8757 85.4001 80.3757C81.5001 83.3757 77.5001 86.2757 73.1001 88.1757C71.1001 89.0757 68.9001 89.7757 66.7001 89.5757C66.3001 89.5757 65.8001 89.4757 65.5001 89.1757C65.2001 88.8757 65.2001 88.5757 65.1001 88.1757C63.6001 81.9757 62.8001 75.7757 62.5001 69.3757C62.5001 68.4757 62.4001 67.6757 62.5001 66.7757C62.5001 66.2757 62.5001 65.7757 62.5001 65.2757C62.6001 63.8757 62.7001 62.3757 62.9001 60.9757C63.1001 59.7757 63.3001 58.4757 63.5001 57.2757C64.5001 52.4757 65.5001 47.5757 67.5001 42.9757C69.3001 38.9757 72.4001 33.2757 77.1001 32.3757C79.0001 31.9757 81.0001 31.9757 82.9001 32.6757C84.8001 33.3757 86.1001 34.8757 87.1001 36.5757C87.8001 37.7757 88.3001 39.0757 88.7001 40.3757C88.7001 40.4757 88.8001 40.4757 88.8001 40.5757C89.2001 41.5757 89.5001 42.5757 89.9001 43.6757C90.3001 45.0757 90.7001 46.4757 90.9001 47.8757C91.0001 48.4757 91.1001 49.0757 91.2001 49.7757C92.2001 56.6757 91.8001 63.6757 91.3001 70.4757Z" fill="#345E9E"/>
<path d="M91.3001 70.4759C91.2001 71.9759 91.1001 73.3759 90.4001 74.6759C89.3001 76.8759 87.3001 78.8759 85.4001 80.3759C81.5001 83.3759 77.5001 86.2759 73.1001 88.1759C71.1001 89.0759 68.9001 89.7759 66.7001 89.5759C66.3001 89.5759 65.8001 89.4759 65.5001 89.1759C65.2001 88.8759 65.2001 88.5759 65.1001 88.1759C63.6001 81.9759 62.8001 75.7759 62.5001 69.3759C62.5001 68.4759 62.4001 67.6759 62.5001 66.7759L91.2001 49.7759C92.2001 56.6759 91.8001 63.6759 91.3001 70.4759Z" fill="#264A82"/>
<path d="M70.7002 80.6756C70.6002 80.5756 70.4002 80.5756 70.3002 80.6756L67.6002 82.2756C67.4002 82.3756 67.3002 82.6756 67.3002 82.8756V87.5756C67.3002 87.7756 67.4002 87.8756 67.5002 87.9756C67.6002 87.9756 67.6002 88.0756 67.7002 88.0756C67.8002 88.0756 67.9002 88.0756 67.9002 87.9756L70.6002 86.3756C70.8002 86.2756 70.9002 85.9756 70.9002 85.7756V81.0756C71.0002 80.8756 70.9002 80.7756 70.7002 80.6756ZM70.6002 85.7756C70.6002 85.8756 70.5002 85.9756 70.4002 86.0756L67.7002 87.6756C67.6002 87.6756 67.6002 87.6756 67.6002 87.6756C67.6002 87.6756 67.5002 87.6756 67.5002 87.5756V82.8756C67.5002 82.7756 67.6002 82.5756 67.7002 82.5756L70.4002 80.9756C70.4002 80.9756 70.4002 80.9756 70.5002 80.9756C70.5002 80.9756 70.5002 80.9756 70.6002 80.9756C70.6002 80.9756 70.7002 80.9756 70.7002 81.0756V85.7756H70.6002Z" fill="#E84242"/>
<path d="M70.6002 81.0756V85.7756C70.6002 85.8756 70.5002 85.9756 70.4002 86.0756L67.7002 87.6756C67.6002 87.6756 67.6002 87.6756 67.6002 87.6756C67.6002 87.6756 67.5002 87.6756 67.5002 87.5756V82.8756C67.5002 82.7756 67.6002 82.5756 67.7002 82.5756L70.4002 80.9756C70.4002 80.9756 70.4002 80.9756 70.5002 80.9756C70.5002 80.9756 70.5002 80.9756 70.6002 80.9756C70.6002 80.9756 70.6002 80.9756 70.6002 81.0756Z" fill="#264A82"/>
<path d="M70.1002 84.9754C69.8002 85.3754 69.5002 85.8754 69.2002 86.1754V81.7754C69.2002 81.7754 69.2002 81.7754 69.2002 81.8754C69.3002 81.9754 69.3002 82.0754 69.4002 82.0754V81.9754C69.5002 82.0754 69.5002 82.2754 69.6002 82.4754V82.5754V82.6754V82.5754C69.7002 82.8754 69.8002 83.1754 69.9002 83.4754C69.9002 83.4754 69.9002 83.3754 69.9002 83.2754V83.3754V83.4754V83.5754C69.9002 83.6754 69.9002 83.6754 69.9002 83.7754V83.8754V83.9754V84.0754C69.9002 84.1754 69.9002 84.1754 69.9002 84.2754C70.0002 84.1754 70.0002 84.1754 70.1002 84.0754C70.1002 84.3754 70.0002 84.7754 69.8002 85.0754C70.0002 84.9754 70.0002 84.9754 70.1002 84.9754Z" fill="#E9EAF2"/>
<path d="M70.1002 83.9752C70.1002 83.9752 70.1002 84.0752 70.1002 83.9752C69.9002 84.4752 69.7002 84.8752 69.6002 85.2752C69.5002 85.4752 69.5002 85.5752 69.4002 85.7752C69.3002 85.8752 69.3002 85.9752 69.2002 86.0752V84.3752C69.3002 83.9752 69.4002 83.4752 69.5002 83.0752C69.5002 82.8752 69.6002 82.7752 69.6002 82.5752V82.6752V82.5752C69.7002 82.8752 69.8002 83.1752 69.9002 83.4752C69.9002 83.4752 69.9002 83.3752 69.9002 83.2752V83.3752V83.4752V83.5752C69.9002 83.6752 69.9002 83.6752 69.9002 83.7752C70.1002 83.7752 70.1002 83.8752 70.1002 83.9752C70.1002 83.8752 70.1002 83.9752 70.1002 83.9752Z" fill="#E9EAF2"/>
<path d="M70.1002 84.9752C69.8002 85.3752 69.5002 85.8752 69.2002 86.1752V85.7752C69.2002 85.6752 69.2002 85.5752 69.3002 85.5752C69.4002 85.2752 69.5002 84.9752 69.6002 84.6752C69.7002 84.4752 69.8002 84.2752 69.9002 83.9752C70.0002 83.8752 70.0002 83.6752 70.0002 83.5752C70.0002 83.4752 70.1002 83.3752 70.1002 83.2752C70.1002 83.1752 70.1002 83.1752 70.1002 83.0752V83.1752V83.2752V83.3752C70.1002 83.4752 70.1002 83.4752 70.1002 83.5752V83.6752V83.7752V83.8752C70.1002 83.9752 70.1002 83.9752 70.1002 84.0752C70.2002 83.9752 70.2002 83.9752 70.3002 83.8752C70.3002 84.1752 70.2002 84.5752 70.0002 84.8752C70.0002 84.9752 70.0002 84.9752 70.1002 84.9752Z" fill="#E9EAF2"/>
<path d="M68.2002 86.0755C68.5002 86.1755 68.8002 86.2755 69.1002 86.2755V81.8755V81.9755C69.0002 82.1755 69.0002 82.3755 68.9002 82.3755C68.8002 82.5755 68.8002 82.7755 68.7002 82.9755C68.7002 83.0755 68.7002 83.0755 68.7002 83.1755V83.2755V83.1755C68.6002 83.5755 68.5002 84.0755 68.4002 84.4755V84.3755V84.4755V84.5755V84.6755C68.4002 84.7755 68.4002 84.7755 68.4002 84.8755V84.9755V85.0755V85.1755C68.4002 85.2755 68.4002 85.2755 68.4002 85.3755C68.3002 85.3755 68.3002 85.3755 68.2002 85.3755C68.2002 85.6755 68.3002 85.8755 68.5002 86.0755C68.2002 86.0755 68.2002 86.0755 68.2002 86.0755Z" fill="#E9EAF2"/>
<path d="M68.1002 85.0753C68.1002 85.0753 68.2002 85.1753 68.1002 85.0753C68.3002 85.3753 68.5002 85.5753 68.6002 85.7753C68.7002 85.8753 68.7002 85.9753 68.8002 85.9753C68.9002 85.9753 68.9002 86.0753 69.0002 86.0753V84.3753C68.9002 84.0753 68.8002 83.7753 68.7002 83.4753C68.7002 83.3753 68.6002 83.2753 68.6002 83.1753V83.2753V83.1753C68.5002 83.5753 68.4002 84.0753 68.3002 84.4753V84.3753V84.4753V84.5753V84.6753C68.3002 84.7753 68.3002 84.7753 68.3002 84.8753C68.1002 84.9753 68.1002 84.9753 68.1002 85.0753Z" fill="#E9EAF2"/>
<path d="M68.2002 86.0755C68.5002 86.1755 68.8002 86.2755 69.1002 86.2755V85.8755C69.1002 85.8755 69.1002 85.7755 69.0002 85.7755C68.9002 85.5755 68.8002 85.3755 68.7002 85.2755C68.6002 85.1755 68.5002 85.0755 68.4002 84.9755C68.3002 84.8755 68.3002 84.7755 68.3002 84.6755C68.3002 84.5755 68.2002 84.5755 68.2002 84.4755V84.3755V84.4755V84.5755V84.6755C68.2002 84.7755 68.2002 84.7755 68.2002 84.8755V84.9755V85.0755V85.1755C68.2002 85.2755 68.2002 85.2755 68.2002 85.3755C68.1002 85.3755 68.1002 85.3755 68.0002 85.3755C68.0002 85.6755 68.1002 85.8755 68.3002 86.0755C68.2002 86.0755 68.2002 86.0755 68.2002 86.0755Z" fill="#E9EAF2"/>
<path d="M69.1002 81.8755V81.9755V85.3755V86.6755H69.2002L69.1002 81.8755C69.1002 81.9755 69.1002 81.8755 69.1002 81.8755Z" fill="#E9EAF2"/>
<path d="M75.0002 78.3758C74.9002 78.2758 74.7002 78.2758 74.6002 78.3758L71.9002 79.9758C71.7002 80.0758 71.6002 80.3758 71.6002 80.5758V85.2758C71.6002 85.4758 71.7002 85.5758 71.8002 85.6758C71.9002 85.6758 71.9002 85.7758 72.0002 85.7758C72.1002 85.7758 72.2002 85.7758 72.2002 85.6758L74.9002 84.0758C75.1002 83.9758 75.2002 83.6758 75.2002 83.4758V78.7758C75.2002 78.5758 75.1002 78.4758 75.0002 78.3758ZM74.9002 83.4758C74.9002 83.5758 74.8002 83.6758 74.7002 83.7758L72.0002 85.3758C71.9002 85.3758 71.9002 85.3758 71.9002 85.3758C71.9002 85.3758 71.8002 85.3758 71.8002 85.2758V80.5758C71.8002 80.4758 71.9002 80.2758 72.0002 80.2758L74.7002 78.6758C74.7002 78.6758 74.7002 78.6758 74.8002 78.6758C74.8002 78.6758 74.8002 78.6758 74.9002 78.6758C74.9002 78.6758 75.0002 78.6758 75.0002 78.7758V83.4758H74.9002Z" fill="#E84242"/>
<path d="M74.9002 78.7758V83.4758C74.9002 83.5758 74.8002 83.6758 74.7002 83.7758L72.0002 85.3758C71.9002 85.3758 71.9002 85.3758 71.9002 85.3758C71.9002 85.3758 71.8002 85.3758 71.8002 85.2758V80.5758C71.8002 80.4758 71.9002 80.2758 72.0002 80.2758L74.7002 78.6758C74.7002 78.6758 74.7002 78.6758 74.8002 78.6758C74.8002 78.6758 74.8002 78.6758 74.9002 78.6758C74.8002 78.6758 74.9002 78.6758 74.9002 78.7758Z" fill="#264A82"/>
<path d="M74.0002 83.376C73.8002 83.576 73.6002 83.876 73.4002 83.976H73.3002H73.2002C72.4002 84.276 71.9002 83.576 72.3002 82.576L73.3002 79.976V79.876L74.3002 81.576C74.6002 82.076 74.4002 82.776 74.0002 83.376Z" fill="#E9EAF2"/>
<path d="M79.2002 75.8758C79.1002 75.7758 78.9002 75.7758 78.8002 75.8758L76.1002 77.4758C75.9002 77.5758 75.8002 77.8758 75.8002 78.0758V82.7758C75.8002 82.9758 75.9002 83.0758 76.0002 83.1758C76.1002 83.1758 76.1002 83.2758 76.2002 83.2758C76.3002 83.2758 76.4002 83.2758 76.4002 83.1758L79.1002 81.5758C79.3002 81.4758 79.4002 81.1758 79.4002 80.9758V76.2758C79.5002 76.1758 79.4002 75.9758 79.2002 75.8758ZM79.1002 80.9758C79.1002 81.0758 79.0002 81.1758 78.9002 81.2758L76.2002 82.8758C76.1002 82.8758 76.1002 82.8758 76.1002 82.8758C76.1002 82.8758 76.0002 82.8758 76.0002 82.7758V78.0758C76.0002 77.9758 76.1002 77.7758 76.2002 77.7758L78.9002 76.1758C78.9002 76.1758 78.9002 76.1758 79.0002 76.1758C79.0002 76.1758 79.0002 76.1758 79.1002 76.1758C79.1002 76.1758 79.2002 76.1758 79.2002 76.2758V80.9758H79.1002Z" fill="#E84242"/>
<path d="M79.1002 76.2758V80.9758C79.1002 81.0758 79.0002 81.1758 78.9002 81.2758L76.2002 82.8758C76.1002 82.8758 76.1002 82.8758 76.1002 82.8758C76.1002 82.8758 76.0002 82.8758 76.0002 82.7758V78.0758C76.0002 77.9758 76.1002 77.7758 76.2002 77.7758L78.9002 76.1758C78.9002 76.1758 78.9002 76.1758 79.0002 76.1758C79.0002 76.1758 79.0002 76.1758 79.1002 76.1758V76.2758Z" fill="#264A82"/>
<path d="M79.1001 78.576C79.1001 78.676 79.1002 78.676 79.0002 78.776L78.9001 78.876C78.7001 79.076 78.6001 79.176 78.6001 79.476C78.6001 79.576 78.5001 79.776 78.6001 79.876C78.6001 79.976 78.6001 80.076 78.7001 80.076H78.8002C78.9002 80.076 78.8001 80.276 78.7001 80.376C78.6001 80.476 78.5002 80.476 78.5002 80.476H78.4001C78.3001 80.376 78.4001 80.176 78.4001 80.176C78.4001 80.076 78.3001 80.076 78.2001 80.176C78.0001 80.276 77.8001 80.476 77.6001 80.776C77.5001 80.976 77.4002 81.176 77.3002 81.276C77.2002 81.376 77.2001 81.376 77.1001 81.376C76.9001 81.476 76.7002 81.576 76.5002 81.676C76.4002 81.676 76.4001 81.676 76.4001 81.676C76.4001 81.676 76.4001 81.576 76.4001 81.476C76.5001 81.276 76.6001 81.176 76.7001 81.176C76.6001 81.176 76.5001 81.176 76.4001 81.176C76.3001 81.176 76.3001 81.076 76.2001 81.076C76.2001 81.076 76.2001 80.976 76.1001 81.076H76.0002C76.0002 81.076 75.9001 81.076 75.9001 80.976C75.9001 80.876 75.9002 80.876 76.0002 80.776C76.0002 80.776 76.0002 80.776 76.0002 80.676C76.2002 80.676 76.3001 80.376 76.4001 80.276C76.6001 80.076 76.7001 79.976 76.9001 79.876C77.1001 79.776 77.2001 79.676 77.4001 79.576C77.5001 79.476 77.6001 79.476 77.7001 79.376L77.8002 79.276C77.8002 79.276 77.9001 79.276 77.9001 79.176V79.076C77.8001 79.176 77.6002 79.176 77.5002 79.276C77.4002 79.276 77.4002 79.276 77.3002 79.276C77.3002 79.176 77.3001 79.076 77.4001 78.976C77.5001 78.876 77.6001 78.876 77.7001 78.876C77.8001 78.876 77.9002 78.876 78.0002 78.876C78.0002 78.776 77.9002 78.776 77.8002 78.776C77.7002 78.776 77.7001 78.676 77.6001 78.676C77.6001 78.576 77.6001 78.476 77.7001 78.376C77.8001 78.276 77.8001 78.376 77.9001 78.376C78.0001 78.376 78.0002 78.376 78.0002 78.476L78.1001 78.576C78.1001 78.576 78.1001 78.576 78.2001 78.576C78.3001 78.576 78.3001 78.476 78.4001 78.476C78.5001 78.476 78.6001 78.376 78.7001 78.476C78.7001 78.476 78.8002 78.476 78.8002 78.576C79.1002 78.476 79.1001 78.476 79.1001 78.576Z" fill="#E9EAF2"/>
<path d="M67.1002 66.8759C66.4002 66.8759 65.8002 66.2759 65.8002 65.5759V61.9759C65.8002 61.2759 66.2002 60.5759 66.8002 60.1759L87.7002 47.9759C87.9002 47.8759 88.1002 47.7759 88.4002 47.7759C89.1002 47.7759 89.7002 48.3759 89.7002 49.0759V52.6759C89.7002 53.3759 89.3002 54.0759 88.7002 54.4759L67.8002 66.6759C67.6002 66.8759 67.3002 66.8759 67.1002 66.8759Z" fill="#D6D8E5"/>
<path d="M66.4002 57.3758C66.1002 57.3758 65.8002 57.0758 65.8002 56.7758V55.2758C65.8002 54.9758 66.0002 54.6758 66.2002 54.4758L75.2002 49.2758C75.3002 49.1758 75.4002 49.1758 75.5002 49.1758C75.8002 49.1758 76.1002 49.4758 76.1002 49.7758V51.2758C76.1002 51.5758 75.9002 51.8758 75.7002 52.0758L66.7002 57.2758C66.6002 57.3758 66.5002 57.3758 66.4002 57.3758Z" fill="#D6D8E5"/>
<path d="M70.6002 74.076C70.3002 74.076 70.0002 73.776 70.0002 73.476V71.976C70.0002 71.676 70.2002 71.376 70.4002 71.176L87.4002 60.976C87.5002 60.876 87.6002 60.876 87.7002 60.876C88.0002 60.876 88.3002 61.176 88.3002 61.476V62.976C88.3002 63.276 88.1002 63.576 87.9002 63.776L70.9002 73.976C70.8002 74.076 70.7002 74.076 70.6002 74.076Z" fill="#EFDA86"/>
<path d="M83.2002 5.47574V5.57574C83.2002 5.77574 83.2002 5.97574 83.1002 6.07574C82.9002 6.87574 82.4002 7.67574 81.5002 8.47574C80.5002 7.97574 79.3002 7.57574 78.1002 7.27574C78.0002 7.07574 77.9002 6.87574 77.7002 6.77574C77.5002 6.57574 77.3002 6.37574 77.0002 6.27574C75.4002 5.37574 72.8002 5.37574 71.2002 6.27574C70.9002 6.47574 70.7002 6.57574 70.5002 6.77574C70.3002 6.97574 70.2002 7.17574 70.1002 7.37574C68.9002 7.67574 67.7002 8.07574 66.7002 8.67574C65.8002 7.97574 65.3002 7.17574 65.1002 6.37574C65.0002 6.07574 65.0002 5.77574 65.0002 5.47574C65.0002 5.37574 65.0002 5.17574 65.1002 5.07574C65.3002 4.37574 65.6002 3.67574 66.3002 3.07574C66.7002 2.67574 67.2002 2.27574 67.8002 1.97574C71.4002 -0.024259 77.1002 -0.124257 80.5002 1.87574C81.1002 2.17574 81.6002 2.57574 82.0002 3.07574C82.5002 3.57574 82.8002 4.17574 83.0002 4.77574C83.2002 5.07574 83.2002 5.27574 83.2002 5.47574Z" fill="#E9EAF2"/>
<path d="M78.3002 7.97598V8.07598C78.3002 8.17598 78.3002 8.17598 78.3002 8.27598C78.2002 8.77598 77.8002 9.27598 77.1002 9.67598C75.5002 10.576 72.9002 10.676 71.3002 9.67598C70.6002 9.27598 70.3002 8.77598 70.1002 8.27598C70.1002 8.17598 70.1002 8.07598 70.1002 7.97598C70.1002 7.87598 70.1002 7.77598 70.1002 7.67598C70.1002 7.57598 70.2002 7.47598 70.2002 7.37598C70.3002 7.17598 70.4002 6.97598 70.6002 6.77598C70.8002 6.57598 71.0002 6.47598 71.3002 6.27598C72.9002 5.37598 75.5002 5.27598 77.1002 6.27598C77.4002 6.47598 77.6002 6.57598 77.8002 6.77598C78.0002 6.97598 78.1002 7.07598 78.2002 7.27598C78.2002 7.37598 78.3002 7.47598 78.3002 7.57598C78.3002 7.77598 78.3002 7.87598 78.3002 7.97598Z" fill="#E9EAF2"/>
<path d="M81.6002 8.57598C81.3002 8.87598 80.9002 9.07597 80.6002 9.27597C80.0002 9.57597 79.3002 9.87598 78.6002 10.176L78.4002 8.07598V7.97598C78.4002 7.87598 78.4002 7.77598 78.4002 7.67598C78.4002 7.57598 78.3002 7.47598 78.3002 7.37598C79.4002 7.57598 80.5002 7.97598 81.6002 8.57598Z" fill="#63AFFF"/>
<path d="M70.2002 7.47559C70.1002 7.57559 70.1002 7.67559 70.1002 7.77559C70.1002 7.87559 70.1002 7.97559 70.1002 8.07559L69.9002 10.2756C69.1002 10.0756 68.4002 9.77559 67.8002 9.37559C67.5002 9.17559 67.1002 8.97559 66.8002 8.77559C67.8002 8.17559 69.0002 7.67559 70.2002 7.47559Z" fill="#63AFFF"/>
<path d="M78.5002 10.1757C75.8002 11.0757 72.6001 11.0757 69.9001 10.2757L70.1001 8.07568C70.1001 8.17568 70.1001 8.27568 70.1001 8.37568C70.2001 8.87568 70.6002 9.37568 71.3002 9.77568C72.9002 10.6757 75.5001 10.6757 77.1001 9.77568C77.8001 9.37568 78.2002 8.87568 78.3002 8.37568C78.3002 8.27568 78.3002 8.27568 78.3002 8.17568L78.5002 10.1757Z" fill="url(#paint0_linear)"/>
<ellipse cx="74.0306" cy="5.60032" rx="9.16962" ry="5.26341" fill="#E9EAF2"/>
<defs>
<linearGradient id="paint0_linear" x1="69.8695" y1="9.42398" x2="78.4859" y2="9.42398" gradientUnits="userSpaceOnUse">
<stop stop-color="#1F85F2"/>
<stop offset="0.3891" stop-color="#1F85F2"/>
<stop offset="0.3915" stop-color="#228BFF"/>
<stop offset="0.6218" stop-color="#228BFF"/>
<stop offset="0.639" stop-color="#3E9AFF"/>
<stop offset="1" stop-color="#3E9AFF"/>
</linearGradient>
</defs>
</svg>
